<svg xmlns="http://www.w3.org/2000/svg" viewBox="0 0 24 24" fill="none" stroke="currentColor" stroke-width="2" stroke-linecap="round" stroke-linejoin="round">
  <circle cx="12" cy="12" r="10" fill="#3b82f6"/>
  <path d="M6 3v12" stroke="white"/>
  <path d="M18 9a3 3 0 1 0 0-6 3 3 0 0 0 0 6z" stroke="white"/>
  <path d="M6 21a3 3 0 1 0 0-6 3 3 0 0 0 0 6z" stroke="white"/>
  <path d="M15 12a3 3 0 1 0 0 6 3 3 0 0 0 0-6z" stroke="white"/>
  <path d="M6 15h9" stroke="white"/>
  <path d="M18 9c0 1.5 1.5 3 3 3" stroke="white"/>
</svg> 